<svg xmlns="http://www.w3.org/2000/svg" xmlns:svg="http://www.w3.org/2000/svg" xmlns:xlink="http://www.w3.org/1999/xlink" id="svg5038" width="40" height="40" version="1.1"><defs id="defs5040"><linearGradient id="linearGradient3849"><stop style="stop-color:#fff;stop-opacity:1" id="stop3851" offset="0"/><stop style="stop-color:#f6f6f6;stop-opacity:1" id="stop3853" offset="1"/></linearGradient><linearGradient id="linearGradient5726" x1="806.395" x2="808" y1="1040.737" y2="1106.529" gradientTransform="matrix(0.04728153,0,0,0.52063887,144.29163,-314.78125)" gradientUnits="userSpaceOnUse" xlink:href="#linearGradient85841-7-0"/><linearGradient id="linearGradient85841-7-0"><stop style="stop-color:#242424;stop-opacity:1" id="stop85843-4-8" offset="0"/><stop id="stop85845-0-5" offset=".634" style="stop-color:#101010;stop-opacity:1"/><stop style="stop-color:#262626;stop-opacity:1" id="stop85847-7-3" offset="1"/></linearGradient><linearGradient id="linearGradient3855" x1="20" x2="20" y1="18" y2="38" gradientTransform="translate(0,1)" gradientUnits="userSpaceOnUse" xlink:href="#linearGradient3849"/></defs><metadata id="metadata5043"/><g id="layer1" transform="translate(0,-8)"><path style="color:#000;fill:url(#linearGradient3855);fill-opacity:1;fill-rule:nonzero;stroke:none;stroke-width:.5;marker:none;visibility:visible;display:inline;overflow:visible;enable-background:new" id="path4863-7-1" d="m 11.2,17 c -0.179012,0 -0.349221,0.02877 -0.515625,0.06875 C 9.717815,17.300959 9,18.160211 9,19.2 l 0,17.6 c 0,1.2188 0.9812,2.2 2.2,2.2 l 17.6,0 C 30.0188,39 31,38.0188 31,36.8 L 31,19.2 C 31,18.160211 30.282185,17.300959 29.315625,17.06875 29.145002,17.048816 28.976147,17 28.8,17 z"/><path style="color:#000;fill:#555;fill-opacity:1;fill-rule:nonzero;stroke:none;stroke-width:.5;marker:none;visibility:visible;display:inline;overflow:visible;enable-background:new" id="path4681-0" d="m 12,16 c -2.216,0 -4,1.784 -4,4 l 0,16 c 0,2.216 1.784,4 4,4 l 16,0 c 2.216,0 4,-1.784 4,-4 l 0,-16 c 0,-2.216 -1.784,-4 -4,-4 z m 0,2 16,0 c 1.108,0 2,0.892 2,2 l 0,16 c 0,1.108 -0.892,2 -2,2 l -16,0 c -1.108,0 -2,-0.892 -2,-2 l 0,-16 c 0,-1.108 0.892,-2 2,-2 z"/></g></svg>