<svg xmlns="http://www.w3.org/2000/svg" xmlns:svg="http://www.w3.org/2000/svg" id="svg32934" width="22" height="2" version="1.1"><metadata id="metadata32939"/><g id="layer1" transform="translate(0,-14)"><g id="g4140" transform="translate(-1,0)" style="fill:#444;fill-opacity:1"><circle id="path5824" cx="868.636" cy="617.15" r="1.9" transform="matrix(-0.52621972,0,0,-0.52621861,467.09364,339.75564)" style="display:inline;fill:#444;fill-opacity:1;stroke:none;enable-background:new"/><circle style="display:inline;fill:#444;fill-opacity:1;stroke:none;enable-background:new" id="path5828" cx="868.636" cy="617.15" r="1.9" transform="matrix(-0.52621972,0,0,-0.52621861,475.09364,339.75564)"/><circle id="path5830" cx="868.636" cy="617.15" r="1.9" transform="matrix(-0.52621972,0,0,-0.52621861,479.09364,339.75563)" style="display:inline;fill:#444;fill-opacity:1;stroke:none;enable-background:new"/><circle id="path5824-3" cx="868.636" cy="617.15" r="1.9" transform="matrix(-0.52621972,0,0,-0.52621861,459.09364,339.75564)" style="display:inline;fill:#444;fill-opacity:1;stroke:none;enable-background:new"/><circle style="display:inline;fill:#444;fill-opacity:1;stroke:none;enable-background:new" id="path5828-7" cx="868.636" cy="617.15" r="1.9" transform="matrix(-0.52621972,0,0,-0.52621861,463.09364,339.75564)"/><circle style="display:inline;fill:#444;fill-opacity:1;stroke:none;enable-background:new" id="path5323" cx="868.636" cy="617.15" r="1.9" transform="matrix(-0.52621972,0,0,-0.52621861,471.09364,339.75564)"/></g></g></svg>