<svg xmlns="http://www.w3.org/2000/svg" xmlns:svg="http://www.w3.org/2000/svg" xmlns:xlink="http://www.w3.org/1999/xlink" id="svg11300" width="208" height="232" version="1.0" style="display:inline;enable-background:new"><title id="title3004">Moka Icon Theme Template</title><defs id="defs3"><linearGradient id="linearGradient4335"><stop style="stop-color:#000;stop-opacity:1" id="stop4337" offset="0"/><stop style="stop-color:#000;stop-opacity:0" id="stop4339" offset="1"/></linearGradient><linearGradient id="linearGradient7214"><stop style="stop-color:#fff;stop-opacity:1" id="stop7216" offset="0"/><stop style="stop-color:#f9f9f9;stop-opacity:1" id="stop7218" offset="1"/></linearGradient><linearGradient id="linearGradient6691"><stop style="stop-color:#000;stop-opacity:.10196079" id="stop6693" offset="0"/><stop style="stop-color:#fff;stop-opacity:.40000001" id="stop6695" offset="1"/></linearGradient><linearGradient id="linearGradient6685"><stop style="stop-color:#000;stop-opacity:.04705882" id="stop6687" offset="0"/><stop style="stop-color:#000;stop-opacity:0" id="stop6689" offset="1"/></linearGradient><linearGradient id="linearGradient6551"><stop id="stop6553" offset="0" style="stop-color:#000;stop-opacity:.04705882"/><stop id="stop6555" offset="1" style="stop-color:#fff;stop-opacity:.40000001"/></linearGradient><linearGradient id="linearGradient4590"><stop style="stop-color:#fff;stop-opacity:1" id="stop4592" offset="0"/><stop style="stop-color:#eee;stop-opacity:1" id="stop4594" offset="1"/></linearGradient><clipPath id="clipPath4259" clipPathUnits="userSpaceOnUse"><path style="opacity:.5;fill:#000;fill-opacity:1;stroke:none" id="path4262" d="m 238,278 -6,-6 0,-8 c 0,0 0,-2 2,-2 l 8,0 c 2,0 2,2 2,2 l 0,8 z"/></clipPath><clipPath id="clipPath6026" clipPathUnits="userSpaceOnUse"><circle id="path6028" cx="358" cy="272" r="7" style="color:#bebebe;display:inline;overflow:visible;visibility:visible;fill:url(#linearGradient6030);fill-opacity:1;fill-rule:nonzero;stroke:none;stroke-width:2;marker:none;enable-background:accumulate"/></clipPath><linearGradient id="linearGradient6030" x1="350" x2="366" y1="272" y2="272" gradientTransform="matrix(0,1,-1,0,630,-86)" gradientUnits="userSpaceOnUse" xlink:href="#linearGradient4590"/><clipPath id="clipPath6046" clipPathUnits="userSpaceOnUse"><circle id="path6048" cx="358" cy="272" r="7" style="color:#bebebe;display:inline;overflow:visible;visibility:visible;fill:url(#linearGradient6050);fill-opacity:1;fill-rule:nonzero;stroke:none;stroke-width:2;marker:none;enable-background:accumulate"/></clipPath><linearGradient id="linearGradient6050" x1="290" x2="306" y1="270" y2="270" gradientTransform="matrix(0,1,-1,0,630,-26)" gradientUnits="userSpaceOnUse" xlink:href="#linearGradient4590"/><linearGradient id="linearGradient7446" x1="25" x2="25" y1="272" y2="279" gradientTransform="matrix(1.1830819,0,0,1.1818181,75.429902,-130.18178)" gradientUnits="userSpaceOnUse" xlink:href="#linearGradient6691"/><linearGradient id="linearGradient7448" x1="25" x2="25" y1="272" y2="279" gradientTransform="matrix(0.99999999,0,0,0.99893454,79.999995,-79.70007)" gradientUnits="userSpaceOnUse" xlink:href="#linearGradient6685"/><linearGradient id="linearGradient7450" x1="19.5" x2="30.512" y1="155.147" y2="155.147" gradientTransform="matrix(1.0010695,0,0,0.99893165,-180.17968,-129.97542)" gradientUnits="userSpaceOnUse" xlink:href="#linearGradient7214"/><linearGradient id="linearGradient7454" x1="25" x2="25" y1="272" y2="279" gradientTransform="translate(0,-120)" gradientUnits="userSpaceOnUse" xlink:href="#linearGradient6691"/><linearGradient id="linearGradient7456" x1="25" x2="25" y1="272" y2="279" gradientTransform="matrix(0.81818182,0,0,0.81818175,4.5454544,-69.818162)" gradientUnits="userSpaceOnUse" xlink:href="#linearGradient6685"/><linearGradient id="linearGradient7458" x1="25" x2="25" y1="272" y2="279" gradientTransform="translate(0,-120)" gradientUnits="userSpaceOnUse" xlink:href="#linearGradient6551"/><linearGradient id="linearGradient4345" x1="19" x2="31" y1="156" y2="156" gradientTransform="translate(-181,-131)" gradientUnits="userSpaceOnUse" xlink:href="#linearGradient4335"/><linearGradient id="linearGradient4359" x1="98" x2="112" y1="176" y2="176" gradientTransform="translate(-281.00002,-71.000015)" gradientUnits="userSpaceOnUse" xlink:href="#linearGradient4335"/><linearGradient id="linearGradient4403" x1="25" x2="25" y1="275.154" y2="279" gradientTransform="matrix(1,0,0,1.0011105,0,-120.31261)" gradientUnits="userSpaceOnUse" xlink:href="#linearGradient6551"/></defs><metadata id="metadata4"/><g id="layer2" transform="translate(0,-68)" style="display:inline"><g id="checkbox-checked" transform="translate(-1,21)"><use id="use6354" width="100%" height="100%" x="0" y="0" transform="translate(20,0)" xlink:href="#g6348"/><rect id="rect6331" width="16" height="16" x="37" y="147" style="opacity:1;fill:none;fill-opacity:1;stroke:none"/><path style="color:#000;font-style:normal;font-variant:normal;font-weight:400;font-stretch:normal;font-size:medium;line-height:normal;font-family:Sans;-inkscape-font-specification:Sans;text-indent:0;text-align:start;text-decoration:none;text-decoration-line:none;letter-spacing:normal;word-spacing:normal;text-transform:none;direction:ltr;block-progression:tb;writing-mode:lr-tb;baseline-shift:baseline;text-anchor:start;display:inline;overflow:visible;visibility:visible;fill:#4d4d4d;fill-opacity:1;stroke:none;stroke-width:2;marker:none;enable-background:accumulate" id="path4934" d="m 51.84375,149.03125 c -0.21888,0.0473 -0.42059,0.17053 -0.5625,0.34375 L 45,156.5625 l -2.25,-2.25 c -0.37633,-0.37638 -1.06119,-0.3764 -1.43755,-5e-5 -0.37635,0.37636 -0.37633,1.06122 5e-5,1.43755 l 3,3 0.78125,0.75 0.6875,-0.8125 7,-8 c 0.56742,-0.61773 -0.11583,-1.8248 -0.9375,-1.65625 z"/></g><g id="checkbox-unchecked" transform="translate(-1,21)"><rect style="opacity:1;fill:none;fill-opacity:1;stroke:none" id="rect5809" width="16" height="16" x="17" y="147"/><g id="g6348"><rect style="opacity:1;fill:#f9f9f9;fill-opacity:1;stroke:none" id="rect6265" width="11" height="11" x="19.5" y="149.5" rx="1" ry="1"/><rect id="rect6300" width="11" height="11" x="19.5" y="150.5" rx="1.5" ry="1.5" style="opacity:1;fill:none;fill-opacity:1;stroke:url(#linearGradient7458);stroke-width:1;stroke-miterlimit:4;stroke-dasharray:none;stroke-opacity:1"/><rect style="opacity:1;fill:none;fill-opacity:1;stroke:#b3b3b3;stroke-width:1;stroke-miterlimit:4;stroke-dasharray:none;stroke-opacity:1" id="rect6290" width="11" height="11" x="19.5" y="149.5" rx="1.5" ry="1.5"/></g></g><g id="checkbox-mixed" transform="translate(-1,21)"><rect style="display:inline;opacity:1;fill:none;fill-opacity:1;stroke:none" id="rect6376" width="16" height="16" x="57" y="147"/><use id="use6369" width="100%" height="100%" x="0" y="0" transform="translate(40,0)" xlink:href="#g6348"/><path id="path6323" d="m 61,154 8,0 0,2 -8,0 z" style="color:#000;display:inline;overflow:visible;visibility:visible;fill:#4d4d4d;fill-opacity:1;fill-rule:nonzero;stroke:none;stroke-width:.5;marker:none;enable-background:new"/></g><g id="checkbox-unchecked-hover" transform="translate(-1,21)"><rect id="rect6569" width="16" height="16" x="17" y="167" style="opacity:1;fill:none;fill-opacity:1;stroke:none"/><g id="g6571" transform="translate(0,20)"><rect id="rect6573" width="11" height="11" x="19.5" y="149.5" rx="1" ry="1" style="opacity:1;fill:#fff;fill-opacity:1;stroke:none"/><rect style="opacity:.1;fill:none;fill-opacity:1;stroke:url(#linearGradient4345);stroke-width:.99999994;stroke-miterlimit:4;stroke-dasharray:none;stroke-opacity:1" id="rect6612" width="11" height="11" x="-161.5" y="19.5" rx="1.5" ry="1.5" transform="matrix(0,-1,1,0,0,0)"/><rect id="rect6577" width="11" height="11" x="19.5" y="149.5" rx="1.5" ry="1.5" style="opacity:1;fill:none;fill-opacity:1;stroke:#999;stroke-width:1;stroke-miterlimit:4;stroke-dasharray:none;stroke-opacity:1"/></g></g><g id="checkbox-checked-hover" transform="translate(-1,21)"><use id="use6619" width="100%" height="100%" x="0" y="0" transform="translate(20,0)" xlink:href="#g6571"/><rect style="opacity:1;fill:none;fill-opacity:1;stroke:none" id="rect6627" width="16" height="16" x="37" y="167"/><path id="path6629" d="m 51.84375,169.03125 c -0.21888,0.0473 -0.42059,0.17053 -0.5625,0.34375 L 45,176.5625 l -2.25,-2.25 c -0.37633,-0.37638 -1.06119,-0.3764 -1.43755,-5e-5 -0.37635,0.37636 -0.37633,1.06122 5e-5,1.43755 l 3,3 0.78125,0.75 0.6875,-0.8125 7,-8 c 0.56742,-0.61773 -0.11583,-1.8248 -0.9375,-1.65625 z" style="color:#000;font-style:normal;font-variant:normal;font-weight:400;font-stretch:normal;font-size:medium;line-height:normal;font-family:Sans;-inkscape-font-specification:Sans;text-indent:0;text-align:start;text-decoration:none;text-decoration-line:none;letter-spacing:normal;word-spacing:normal;text-transform:none;direction:ltr;block-progression:tb;writing-mode:lr-tb;baseline-shift:baseline;text-anchor:start;display:inline;overflow:visible;visibility:visible;fill:#333;fill-opacity:1;stroke:none;stroke-width:2;marker:none;enable-background:accumulate"/></g><g id="checkbox-mixed-hover" transform="translate(-1,21)"><use id="use6621" width="100%" height="100%" x="0" y="0" transform="translate(40,0)" xlink:href="#g6571"/><rect id="rect6633" width="16" height="16" x="57" y="167" style="display:inline;opacity:1;fill:none;fill-opacity:1;stroke:none"/><path style="color:#000;display:inline;overflow:visible;visibility:visible;fill:#333;fill-opacity:1;fill-rule:nonzero;stroke:none;stroke-width:.5;marker:none;enable-background:new" id="path6637" d="m 61,174 8,0 0,2 -8,0 z"/></g><g id="checkbox-unchecked-active" transform="translate(-1,21)"><rect id="rect6664" width="16" height="16" x="17" y="187" style="opacity:1;fill:none;fill-opacity:1;stroke:none"/><g id="g6666" transform="translate(0,40)"><rect id="rect6668" width="11" height="11" x="19.5" y="149.5" rx="1" ry="1" style="opacity:1;fill:#fff;fill-opacity:1;stroke:none"/><rect style="opacity:1;fill:none;fill-opacity:1;stroke:url(#linearGradient7454);stroke-width:1;stroke-miterlimit:4;stroke-dasharray:none;stroke-opacity:1" id="rect6670" width="11" height="11" x="19.5" y="150.5" rx="1.5" ry="1.5"/><rect id="rect6681" width="9" height="9" x="20.5" y="151.5" rx=".5" ry=".5" style="opacity:1;fill:none;fill-opacity:1;stroke:url(#linearGradient7456);stroke-width:.99999988;stroke-miterlimit:4;stroke-dasharray:none;stroke-opacity:1"/><rect id="rect6672" width="11" height="11" x="19.5" y="149.5" rx="1.5" ry="1.5" style="opacity:1;fill:none;fill-opacity:1;stroke:#b3b3b3;stroke-width:1;stroke-miterlimit:4;stroke-dasharray:none;stroke-opacity:1"/></g></g><g id="checkbox-checked-active" transform="translate(-1,21)"><rect style="opacity:1;fill:none;fill-opacity:1;stroke:none" width="16" height="16" x="37" y="187"/><use id="use6697" width="100%" height="100%" x="0" y="0" transform="translate(20,0)" xlink:href="#g6666"/><path id="path6723" d="m 51.84375,189.03125 c -0.21888,0.0473 -0.42059,0.17053 -0.5625,0.34375 L 45,196.5625 l -2.25,-2.25 c -0.37633,-0.37638 -1.06119,-0.3764 -1.43755,-5e-5 -0.37635,0.37636 -0.37633,1.06122 5e-5,1.43755 l 3,3 0.78125,0.75 0.6875,-0.8125 7,-8 c 0.56742,-0.61773 -0.11583,-1.8248 -0.9375,-1.65625 z" style="color:#000;font-style:normal;font-variant:normal;font-weight:400;font-stretch:normal;font-size:medium;line-height:normal;font-family:Sans;-inkscape-font-specification:Sans;text-indent:0;text-align:start;text-decoration:none;text-decoration-line:none;letter-spacing:normal;word-spacing:normal;text-transform:none;direction:ltr;block-progression:tb;writing-mode:lr-tb;baseline-shift:baseline;text-anchor:start;display:inline;overflow:visible;visibility:visible;fill:#4d4d4d;fill-opacity:1;stroke:none;stroke-width:2;marker:none;enable-background:accumulate"/></g><g id="checkbox-mixed-active" transform="translate(-1,21)"><rect style="display:inline;opacity:1;fill:none;fill-opacity:1;stroke:none" id="asdacduah" width="16" height="16" x="57" y="187"/><use id="use6699" width="100%" height="100%" x="0" y="0" transform="translate(40,0)" xlink:href="#g6666"/><path style="color:#000;display:inline;overflow:visible;visibility:visible;fill:#4d4d4d;fill-opacity:1;fill-rule:nonzero;stroke:none;stroke-width:.5;marker:none;enable-background:new" id="path6725" d="m 61,194 8,0 0,2 -8,0 z"/></g><g id="checkbox-checked-insensitive" transform="translate(-1,21)"><rect style="display:inline;opacity:1;fill:none;fill-opacity:1;stroke:none" id="rect6834" width="16" height="16" x="37" y="207"/><use id="use6828" width="100%" height="100%" x="0" y="0" transform="translate(20,0)" xlink:href="#g6803"/><path style="color:#000;font-style:normal;font-variant:normal;font-weight:400;font-stretch:normal;font-size:medium;line-height:normal;font-family:Sans;-inkscape-font-specification:Sans;text-indent:0;text-align:start;text-decoration:none;text-decoration-line:none;letter-spacing:normal;word-spacing:normal;text-transform:none;direction:ltr;block-progression:tb;writing-mode:lr-tb;baseline-shift:baseline;text-anchor:start;display:inline;overflow:visible;visibility:visible;fill:#b3b3b3;fill-opacity:1;stroke:none;stroke-width:2;marker:none;enable-background:accumulate" id="path6727" d="m 51.84375,209.03125 c -0.21888,0.0473 -0.42059,0.17053 -0.5625,0.34375 L 45,216.5625 l -2.25,-2.25 c -0.37633,-0.37638 -1.06119,-0.3764 -1.43755,-5e-5 -0.37635,0.37636 -0.37633,1.06122 5e-5,1.43755 l 3,3 0.78125,0.75 0.6875,-0.8125 7,-8 c 0.56742,-0.61773 -0.11583,-1.8248 -0.9375,-1.65625 z"/></g><g id="checkbox-mixed-insensitive" transform="translate(-1,21)"><rect id="rect6739" width="16" height="16" x="57" y="207" style="display:inline;opacity:1;fill:none;fill-opacity:1;stroke:none"/><use id="use6832" width="100%" height="100%" x="0" y="0" transform="translate(40,0)" xlink:href="#g6803"/><path id="path6729" d="m 61,214 8,0 0,2 -8,0 z" style="color:#000;display:inline;overflow:visible;visibility:visible;fill:#b3b3b3;fill-opacity:1;fill-rule:nonzero;stroke:none;stroke-width:.5;marker:none;enable-background:new"/></g><g id="g6897" transform="translate(-1,21)"><rect style="opacity:1;fill:none;fill-opacity:1;stroke:none" id="checkbox-checked-backdrop" width="16" height="16" x="37" y="227"/><use id="use6887" width="100%" height="100%" x="0" y="0" transform="translate(20,0)" xlink:href="#g6864"/><path id="path6731" d="m 51.84375,229.03125 c -0.21888,0.0473 -0.42059,0.17053 -0.5625,0.34375 L 45,236.5625 l -2.25,-2.25 c -0.37633,-0.37638 -1.06119,-0.3764 -1.43755,-5e-5 -0.37635,0.37636 -0.37633,1.06122 5e-5,1.43755 l 3,3 0.78125,0.75 0.6875,-0.8125 7,-8 c 0.56742,-0.61773 -0.11583,-1.8248 -0.9375,-1.65625 z" style="color:#000;font-style:normal;font-variant:normal;font-weight:400;font-stretch:normal;font-size:medium;line-height:normal;font-family:Sans;-inkscape-font-specification:Sans;text-indent:0;text-align:start;text-decoration:none;text-decoration-line:none;letter-spacing:normal;word-spacing:normal;text-transform:none;direction:ltr;block-progression:tb;writing-mode:lr-tb;baseline-shift:baseline;text-anchor:start;display:inline;overflow:visible;visibility:visible;fill:gray;fill-opacity:1;stroke:none;stroke-width:2;marker:none;enable-background:accumulate"/></g><g id="checkbox-mixed-backdrop" transform="translate(-1,21)"><rect style="display:inline;opacity:1;fill:none;fill-opacity:1;stroke:none" id="rect6743" width="16" height="16" x="57" y="227"/><use id="use6889" width="100%" height="100%" x="0" y="0" transform="translate(40,0)" xlink:href="#g6864"/><path style="color:#000;display:inline;overflow:visible;visibility:visible;fill:gray;fill-opacity:1;fill-rule:nonzero;stroke:none;stroke-width:.5;marker:none;enable-background:new" id="path6733" d="m 61,234 8,0 0,2 -8,0 z"/></g><g id="checkbox-unchecked-insensitive" transform="translate(-1,21)"><rect id="rect6801" width="16" height="16" x="17" y="207" style="opacity:1;fill:none;fill-opacity:1;stroke:none"/><g id="g6803" transform="translate(0,60)"><rect id="rect6805" width="11" height="11" x="19.5" y="149.5" rx="1" ry="1" style="opacity:1;fill:#f2f2f2;fill-opacity:1;stroke:none"/><rect id="rect6809" width="11" height="11" x="19.5" y="149.5" rx="1.5" ry="1.5" style="opacity:1;fill:none;fill-opacity:1;stroke:#b3b3b3;stroke-width:1;stroke-miterlimit:4;stroke-dasharray:none;stroke-opacity:1"/></g></g><g id="checkbox-unchecked-backdrop" transform="translate(-1,21)"><rect id="rect6862" width="16" height="16" x="17" y="227" style="opacity:1;fill:none;fill-opacity:1;stroke:none"/><g id="g6864" transform="translate(0,80)"><rect id="rect6866" width="11" height="11" x="19.5" y="149.5" rx="1" ry="1" style="opacity:1;fill:#f9f9f9;fill-opacity:1;stroke:none"/><rect id="rect6870" width="11" height="11" x="19.5" y="149.5" rx="1.5" ry="1.5" style="opacity:1;fill:none;fill-opacity:1;stroke:#b3b3b3;stroke-width:1;stroke-miterlimit:4;stroke-dasharray:none;stroke-opacity:1"/></g></g><g id="checkbox-unchecked-insensitive-backdrop" transform="translate(-1,21)"><rect style="opacity:1;fill:none;fill-opacity:1;stroke:none" id="rect6909" width="16" height="16" x="17" y="247"/><g id="g6911" transform="translate(0,100)"><rect id="rect6952" width="11" height="11" x="19.5" y="149.5" rx="1.5" ry="1.5" style="opacity:1;fill:#ececec;fill-opacity:1;stroke:none;stroke-width:1;stroke-miterlimit:4;stroke-dasharray:none;stroke-opacity:1"/><rect style="opacity:1;fill:none;fill-opacity:1;stroke:#ccc;stroke-width:1;stroke-miterlimit:4;stroke-dasharray:none;stroke-opacity:1" id="rect6915" width="11" height="11" x="19.5" y="149.5" rx="1.5" ry="1.5"/></g></g><g id="checkbox-checked-insensitive-backdrop" transform="translate(-1,21)"><rect id="rect6749" width="16" height="16" x="37" y="247" style="opacity:1;fill:none;fill-opacity:1;stroke:none"/><use id="use6926" width="100%" height="100%" x="0" y="0" transform="translate(20,0)" xlink:href="#g6911"/><path style="color:#000;font-style:normal;font-variant:normal;font-weight:400;font-stretch:normal;font-size:medium;line-height:normal;font-family:Sans;-inkscape-font-specification:Sans;text-indent:0;text-align:start;text-decoration:none;text-decoration-line:none;letter-spacing:normal;word-spacing:normal;text-transform:none;direction:ltr;block-progression:tb;writing-mode:lr-tb;baseline-shift:baseline;text-anchor:start;display:inline;overflow:visible;visibility:visible;fill:#ccc;fill-opacity:1;stroke:none;stroke-width:2;marker:none;enable-background:accumulate" id="path6936" d="m 51.84375,249.03125 c -0.21888,0.0473 -0.42059,0.17053 -0.5625,0.34375 L 45,256.5625 l -2.25,-2.25 c -0.37633,-0.37638 -1.06119,-0.3764 -1.43755,-5e-5 -0.37635,0.37636 -0.37633,1.06122 5e-5,1.43755 l 3,3 0.78125,0.75 0.6875,-0.8125 7,-8 c 0.56742,-0.61773 -0.11583,-1.8248 -0.9375,-1.65625 z"/></g><g id="checkbox-mixed-insensitive-backdrop" transform="translate(-1,21)"><rect id="rect6747" width="16" height="16" x="57" y="247" style="display:inline;opacity:1;fill:none;fill-opacity:1;stroke:none"/><use id="use6928" width="100%" height="100%" x="0" y="0" transform="translate(40,0)" xlink:href="#g6911"/><path id="path6944" d="m 61,254 8,0 0,2 -8,0 z" style="color:#000;display:inline;overflow:visible;visibility:visible;fill:#ccc;fill-opacity:1;fill-rule:nonzero;stroke:none;stroke-width:.5;marker:none;enable-background:new"/></g><g id="radio-checked" transform="translate(-1,21)"><use id="use7264" width="100%" height="100%" x="0" y="0" transform="translate(20,0)" xlink:href="#g7240"/><circle id="circle4552" cx="125" cy="155" r="3" style="color:#bebebe;display:inline;overflow:visible;visibility:visible;fill:#4d4d4d;fill-opacity:1;fill-rule:nonzero;stroke:none;stroke-width:1;marker:none;enable-background:accumulate"/><rect style="opacity:1;fill:none;fill-opacity:1;stroke:none" id="rect6974" width="16" height="16" x="117" y="147"/></g><g id="radio-unchecked" transform="translate(-1,21)"><rect id="rect6980" width="16" height="16" x="97" y="147" style="opacity:1;fill:none;fill-opacity:1;stroke:none"/><g id="g7240"><g id="g6982" transform="matrix(1.1818182,0,0,1.1805556,75.454545,-28.159722)"><rect style="opacity:1;fill:url(#linearGradient7450);fill-opacity:1;stroke:none" id="rect6984" width="11.024" height="11" x="-160.659" y="19.506" rx="5.512" ry="5.488" transform="matrix(0,-1,1,0,0,0)"/><rect id="rect6986" width="11" height="11.012" x="19.5" y="150.488" rx="5.5" ry="5.5" style="opacity:1;fill:none;fill-opacity:1;stroke:url(#linearGradient4403);stroke-width:.84660619;stroke-miterlimit:4;stroke-dasharray:none;stroke-opacity:1"/><rect style="opacity:1;fill:none;fill-opacity:1;stroke:#b3b3b3;stroke-width:.84660619;stroke-miterlimit:4;stroke-dasharray:none;stroke-opacity:1" id="rect6988" width="11.012" height="11.012" x="19.5" y="149.641" rx="5.506" ry="5.506"/></g></g></g><g id="radio-mixed" transform="translate(-1,21)"><use id="use7268" width="100%" height="100%" x="0" y="0" transform="translate(40,0)" xlink:href="#g7240"/><rect id="rect6992" width="16" height="16" x="137" y="147" style="display:inline;opacity:1;fill:none;fill-opacity:1;stroke:none"/><path style="color:#000;display:inline;overflow:visible;visibility:visible;fill:#4d4d4d;fill-opacity:1;fill-rule:nonzero;stroke:none;stroke-width:.5;marker:none;enable-background:new" id="path6996" d="m 141,154 8,0 0,2 -8,0 z"/></g><g id="radio-unchecked-hover" transform="translate(-1,21)"><rect style="opacity:1;fill:none;fill-opacity:1;stroke:none" id="rect7000" width="16" height="16" x="97" y="167"/><g id="g7235"><rect style="opacity:1;fill:#fff;fill-opacity:1;stroke:none" id="rect7004" width="13" height="13" x="98.5" y="168.5" rx="7" ry="7"/><rect id="rect7006" width="13" height="13" x="-182.5" y="98.5" rx="7" ry="7" transform="matrix(0,-1,1,0,0,0)" style="opacity:.1;fill:none;fill-opacity:1;stroke:url(#linearGradient4359);stroke-width:.99999994;stroke-miterlimit:4;stroke-dasharray:none;stroke-opacity:1"/><rect style="opacity:1;fill:none;fill-opacity:1;stroke:#999;stroke-width:1;stroke-miterlimit:4;stroke-dasharray:none;stroke-opacity:1" id="rect7008" width="13.014" height="13" x="98.5" y="168.5" rx="7" ry="7"/></g></g><g id="radio-checked-hover" transform="translate(-1,21)"><use id="use7270" width="100%" height="100%" x="0" y="0" transform="translate(20,0)" xlink:href="#g7235"/><rect id="rect7014" width="16" height="16" x="117" y="167" style="opacity:1;fill:none;fill-opacity:1;stroke:none"/><circle style="color:#bebebe;display:inline;overflow:visible;visibility:visible;fill:#333;fill-opacity:1;fill-rule:nonzero;stroke:none;stroke-width:1;marker:none;enable-background:accumulate" id="circle7302" cx="125" cy="175" r="3"/></g><g id="radio-unchecked-active" transform="translate(-1,21)"><rect style="opacity:1;fill:none;fill-opacity:1;stroke:none" id="rect7028" width="16" height="16" x="97" y="187"/><g id="g7246"><rect style="opacity:1;fill:#fff;fill-opacity:1;stroke:none" id="rect7032" width="13" height="12.986" x="98.5" y="188.333" rx="7" ry="7"/><rect id="rect7034" width="13.014" height="13" x="98.5" y="189.5" rx="7" ry="7" style="opacity:1;fill:none;fill-opacity:1;stroke:url(#linearGradient7446);stroke-width:1;stroke-miterlimit:4;stroke-dasharray:none;stroke-opacity:1"/><rect style="opacity:1;fill:none;fill-opacity:1;stroke:url(#linearGradient7448);stroke-width:.99999988;stroke-miterlimit:4;stroke-dasharray:none;stroke-opacity:1" id="rect7036" width="11" height="10.988" x="99.5" y="190.512" rx="7" ry="7"/><rect style="opacity:1;fill:none;fill-opacity:1;stroke:#b3b3b3;stroke-width:1;stroke-miterlimit:4;stroke-dasharray:none;stroke-opacity:1" id="rect7038" width="13.014" height="13" x="98.5" y="188.5" rx="7" ry="7"/></g></g><g id="radio-mixed-hover" transform="translate(-1,21)"><use id="use7272" width="100%" height="100%" x="0" y="0" transform="translate(40,0)" xlink:href="#g7235"/><rect style="display:inline;opacity:1;fill:none;fill-opacity:1;stroke:none" id="rect7022" width="16" height="16" x="137" y="167"/><path id="path7024" d="m 141,174 8,0 0,2 -8,0 z" style="color:#000;display:inline;overflow:visible;visibility:visible;fill:#333;fill-opacity:1;fill-rule:nonzero;stroke:none;stroke-width:.5;marker:none;enable-background:new"/><path style="color:#000;display:inline;overflow:visible;visibility:visible;fill:#333;fill-opacity:1;fill-rule:nonzero;stroke:none;stroke-width:.5;marker:none;enable-background:new" id="path7042" d="m 141,174 8,0 0,2 -8,0 z"/></g><g id="radio-mixed-active" transform="translate(-1,21)"><use id="use7276" width="100%" height="100%" x="0" y="0" transform="translate(40,0)" xlink:href="#g7246"/><rect id="rect7054" width="16" height="16" x="137" y="187" style="display:inline;opacity:1;fill:none;fill-opacity:1;stroke:none"/><path id="path7058" d="m 141,194 8,0 0,2 -8,0 z" style="color:#000;display:inline;overflow:visible;visibility:visible;fill:#4d4d4d;fill-opacity:1;fill-rule:nonzero;stroke:none;stroke-width:.5;marker:none;enable-background:new"/></g><g id="radio-mixed-insensitive" transform="translate(-1,21)"><use id="use7280" width="100%" height="100%" x="0" y="0" transform="translate(40,0)" xlink:href="#g7252"/><rect style="display:inline;opacity:1;fill:none;fill-opacity:1;stroke:none" id="rect7070" width="16" height="16" x="137" y="207"/><path style="color:#000;display:inline;overflow:visible;visibility:visible;fill:#b3b3b3;fill-opacity:1;fill-rule:nonzero;stroke:none;stroke-width:.5;marker:none;enable-background:new" id="path7074" d="m 141,214 8,0 0,2 -8,0 z"/></g><g id="radio-mixed-backdrop" transform="translate(-1,21)"><use id="use7284" width="100%" height="100%" x="0" y="0" transform="translate(40,0)" xlink:href="#g7256"/><rect id="rect7086" width="16" height="16" x="137" y="227" style="display:inline;opacity:1;fill:none;fill-opacity:1;stroke:none"/><path id="path7090" d="m 141,234 8,0 0,2 -8,0 z" style="color:#000;display:inline;overflow:visible;visibility:visible;fill:gray;fill-opacity:1;fill-rule:nonzero;stroke:none;stroke-width:.5;marker:none;enable-background:new"/></g><g id="radio-unchecked-insensitive" transform="translate(-1,21)"><rect style="opacity:1;fill:none;fill-opacity:1;stroke:none" id="rect7094" width="16" height="16" x="97" y="207"/><g id="g7252"><rect style="opacity:1;fill:#f2f2f2;fill-opacity:1;stroke:none" id="rect7098" width="13" height="13" x="98.5" y="208.5" rx="7" ry="7"/><rect style="opacity:1;fill:none;fill-opacity:1;stroke:#b3b3b3;stroke-width:1;stroke-miterlimit:4;stroke-dasharray:none;stroke-opacity:1" id="rect7100" width="13" height="13" x="98.5" y="208.5" rx="7" ry="7"/></g></g><g id="radio-unchecked-backdrop" transform="translate(-1,21)"><rect style="opacity:1;fill:none;fill-opacity:1;stroke:none" id="rect7104" width="16" height="16" x="97" y="227"/><g id="g7256"><rect style="opacity:1;fill:#f9f9f9;fill-opacity:1;stroke:none" id="rect7108" width="13" height="13" x="98.5" y="228.5" rx="7" ry="7"/><rect style="opacity:1;fill:none;fill-opacity:1;stroke:#b3b3b3;stroke-width:1;stroke-miterlimit:4;stroke-dasharray:none;stroke-opacity:1" id="rect7110" width="13" height="13" x="98.5" y="228.5" rx="7" ry="7"/></g></g><g id="radio-unchecked-insenstive-backdrop" transform="translate(-1,21)"><rect id="rect7114" width="16" height="16" x="97" y="247" style="opacity:1;fill:none;fill-opacity:1;stroke:none"/><g id="g7260"><rect style="opacity:1;fill:#ececec;fill-opacity:1;stroke:none;stroke-width:1;stroke-miterlimit:4;stroke-dasharray:none;stroke-opacity:1" id="rect7118" width="13" height="13" x="98.5" y="248.5" rx="7" ry="7"/><rect id="rect7120" width="13" height="13" x="98.5" y="248.5" rx="7" ry="7" style="opacity:1;fill:none;fill-opacity:1;stroke:#ccc;stroke-width:1;stroke-miterlimit:4;stroke-dasharray:none;stroke-opacity:1"/></g></g><g id="radio-mixed-insenstive-backdrop" transform="translate(-1,21)"><use id="use7300" width="100%" height="100%" x="0" y="0" transform="translate(40,0)" xlink:href="#g7260"/><rect style="display:inline;opacity:1;fill:none;fill-opacity:1;stroke:none" id="rect7132" width="16" height="16" x="137" y="247"/><path style="color:#000;display:inline;overflow:visible;visibility:visible;fill:#ccc;fill-opacity:1;fill-rule:nonzero;stroke:none;stroke-width:.5;marker:none;enable-background:new" id="path7136" d="m 141,254 8,0 0,2 -8,0 z"/></g><g id="radio-checked-active" transform="translate(-1,21)"><use id="use7274" width="100%" height="100%" x="0" y="0" transform="translate(20,0)" xlink:href="#g7246"/><rect id="rect7046" width="16" height="16" x="117" y="187" style="opacity:1;fill:none;fill-opacity:1;stroke:none"/><circle style="color:#bebebe;display:inline;overflow:visible;visibility:visible;fill:#4d4d4d;fill-opacity:1;fill-rule:nonzero;stroke:none;stroke-width:1;marker:none;enable-background:accumulate" id="circle7304" cx="125" cy="195" r="3"/></g><g id="radio-checked-insensitive" transform="translate(-1,21)"><use id="use7278" width="100%" height="100%" x="0" y="0" transform="translate(20,0)" xlink:href="#g7252"/><rect id="rect7062" width="16" height="16" x="117" y="207" style="display:inline;opacity:1;fill:none;fill-opacity:1;stroke:none"/><circle id="circle7306" cx="125" cy="215" r="3" style="color:#bebebe;display:inline;overflow:visible;visibility:visible;fill:#b3b3b3;fill-opacity:1;fill-rule:nonzero;stroke:none;stroke-width:1;marker:none;enable-background:accumulate"/></g><g id="radio-checked-backdrop" transform="translate(-1,21)"><use id="use7282" width="100%" height="100%" x="0" y="0" transform="translate(20,0)" xlink:href="#g7256"/><rect id="rect7078" width="16" height="16" x="117" y="227" style="opacity:1;fill:none;fill-opacity:1;stroke:none"/><circle style="color:#bebebe;display:inline;overflow:visible;visibility:visible;fill:gray;fill-opacity:1;fill-rule:nonzero;stroke:none;stroke-width:1;marker:none;enable-background:accumulate" id="circle7308" cx="125" cy="235" r="3"/></g><g id="radio-checked-insenstive-backdrop" transform="translate(-1,21)"><use id="use7298" width="100%" height="100%" x="0" y="0" transform="translate(20,0)" xlink:href="#g7260"/><rect style="opacity:1;fill:none;fill-opacity:1;stroke:none" id="rect7124" width="16" height="16" x="117" y="247"/><circle id="circle7310" cx="125" cy="255" r="3" style="color:#bebebe;display:inline;overflow:visible;visibility:visible;fill:#ccc;fill-opacity:1;fill-rule:nonzero;stroke:none;stroke-width:1;marker:none;enable-background:accumulate"/></g></g></svg>