<svg xmlns="http://www.w3.org/2000/svg" xmlns:svg="http://www.w3.org/2000/svg" id="svg5474" width="200" height="200" version="1.1" viewBox="0 0 200 200"><defs id="defs5476"><clipPath id="clipPath5057-1" clipPathUnits="userSpaceOnUse"><path id="path5059-2" d="m 427.33333,22.026666 0,69.333333 69.33333,0 0,-69.333333 -69.33333,0 z m 13.11917,9.013333 43.095,0 c 2.27623,0 4.10583,1.829606 4.10583,4.105834 l 0,43.094999 c 0,2.276228 -1.8296,4.105834 -4.10583,4.105834 l -43.095,0 c -2.27623,0 -4.10583,-1.829606 -4.10583,-4.105834 l 0,-43.094999 c 0,-2.276228 1.8296,-4.105834 4.10583,-4.105834 z" style="color:#000;fill:#f0f;fill-opacity:1;fill-rule:nonzero;stroke:none;stroke-width:1;marker:none;visibility:visible;display:inline;overflow:visible;enable-background:accumulate"/></clipPath><clipPath id="clipPath5464" clipPathUnits="userSpaceOnUse"><path id="path5466" d="m 427.33333,22.026666 0,69.333333 69.33333,0 0,-69.333333 -69.33333,0 z m 13.11917,9.013333 43.095,0 c 2.27623,0 4.10583,1.829606 4.10583,4.105834 l 0,43.094999 c 0,2.276228 -1.8296,4.105834 -4.10583,4.105834 l -43.095,0 c -2.27623,0 -4.10583,-1.829606 -4.10583,-4.105834 l 0,-43.094999 c 0,-2.276228 1.8296,-4.105834 4.10583,-4.105834 z" style="color:#000;fill:#f0f;fill-opacity:1;fill-rule:nonzero;stroke:none;stroke-width:1;marker:none;visibility:visible;display:inline;overflow:visible;enable-background:accumulate"/></clipPath></defs><metadata id="metadata5479"/><g id="layer1" transform="translate(-977.14287,-1069.505)"><rect style="opacity:.1;fill:#fff;fill-opacity:1;stroke:none;stroke-width:2;stroke-linecap:square;stroke-linejoin:round;stroke-miterlimit:4;stroke-dasharray:none;stroke-opacity:1" id="rect4141" width="172" height="172" x="991.143" y="1083.505" ry="16"/></g></svg>