<svg xmlns="http://www.w3.org/2000/svg" xmlns:svg="http://www.w3.org/2000/svg" xmlns:xlink="http://www.w3.org/1999/xlink" id="svg2" width="44" height="6" version="1.1"><defs id="defs4"><marker id="Torso" orient="auto" refX="0" refY="0" style="overflow:visible"><g id="g4192" transform="scale(0.7,0.7)"><path id="path4194" d="m -4.7792281,-3.239542 c 2.350374,0.3659393 5.30026732,1.9375477 5.03715532,3.62748546 C -0.00518779,2.0778819 -2.2126741,2.6176539 -4.5630471,2.2517169 -6.9134221,1.8857769 -8.521035,0.75201414 -8.257922,-0.93792336 -7.994809,-2.6278615 -7.1296041,-3.6054813 -4.7792281,-3.239542 z" style="fill:none;stroke:#000;stroke-width:1.25"/><path id="path4196" d="M 4.4598789,0.08866574 C -2.5564571,-4.378332 5.2248769,-3.9061806 -0.84829578,-8.7197331" style="fill:none;stroke:#000;stroke-width:1pt"/><path id="path4198" d="M 4.9298719,0.05752074 C -1.3872731,1.7494689 1.8027579,5.4782079 -4.9448731,7.5462725" style="fill:none;stroke:#000;stroke-width:1pt"/><rect id="rect4200" width="2.637" height="2.761" x="-10.392" y="-1.741" transform="matrix(0.527536,-0.849533,0.887668,0.460484,0,0)" style="fill-rule:evenodd;stroke-width:1pt"/><rect id="rect4202" width="2.733" height="2.861" x="4.959" y="-7.963" transform="matrix(0.671205,-0.741272,0.790802,0.612072,0,0)" style="fill-rule:evenodd;stroke-width:1pt"/><path id="path4204" d="m 16.779951,-28.685045 a 0.60731727,0.60731727 0 1 0 -1.214634,0 0.60731727,0.60731727 0 1 0 1.214634,0 z" transform="matrix(0,-1.109517,1.109517,0,25.96648,19.71619)" style="fill:red;fill-opacity:.75;fill-rule:evenodd;stroke:#000;stroke-width:1pt"/><path id="path4206" d="m 16.779951,-28.685045 a 0.60731727,0.60731727 0 1 0 -1.214634,0 0.60731727,0.60731727 0 1 0 1.214634,0 z" transform="matrix(0,-1.109517,1.109517,0,26.8245,16.99126)" style="fill:red;fill-opacity:.75;fill-rule:evenodd;stroke:#000;stroke-width:1pt"/></g></marker><marker id="Arrow1Lstart" orient="auto" refX="0" refY="0" style="overflow:visible"><path id="path3980" d="M 0,0 5,-5 -12.5,0 5,5 0,0 z" transform="matrix(0.8,0,0,0.8,10,0)" style="fill-rule:evenodd;stroke:#000;stroke-width:1pt"/></marker><linearGradient id="linearGradient3854" x1="25" x2="25" y1="24" y2="30" gradientUnits="userSpaceOnUse" xlink:href="#linearGradient3848"/><linearGradient id="linearGradient3848"><stop style="stop-color:#fff;stop-opacity:1" id="stop3850" offset="0"/><stop style="stop-color:#e3e3e3;stop-opacity:1" id="stop3852" offset="1"/></linearGradient></defs><metadata id="metadata7"/><g id="layer2" transform="translate(0,-1046.3622)" style="display:inline"><g style="display:inline;fill:#9fb0b9;fill-opacity:1" id="g3876" transform="translate(-5,24.00004)"><rect id="rect3846" width="44" height="6" x="5" y="24" ry="3" transform="translate(0,998.36218)" style="fill:#9fb0b9;fill-opacity:1;stroke:none"/></g></g></svg>